<svg xmlns="http://www.w3.org/2000/svg" xmlns:xlink="http://www.w3.org/1999/xlink" preserveAspectRatio="xMidYMid" width="41" height="37" viewBox="0 0 41 37">
  <defs>
    <style>
      .cls-1 {
        fill: #3cc3b5;
        fill-rule: evenodd;
      }
    </style>
  </defs>
  <path d="M19.896,0.009 C18.430,0.009 17.228,1.016 16.957,2.391 L16.880,2.391 L7.231,13.131 L12.056,13.131 L18.730,5.711 C19.089,5.862 19.484,5.974 19.896,5.974 C20.315,5.974 20.702,5.862 21.069,5.711 L27.736,13.131 L32.568,13.131 L22.912,2.391 L22.835,2.391 C22.571,1.016 21.369,0.009 19.896,0.009 L19.896,0.009 ZM2.407,15.515 C1.069,15.515 -0.009,16.581 -0.009,17.904 L-0.009,19.096 C-0.009,20.355 0.968,21.345 2.219,21.445 L6.023,34.603 C7.231,36.990 8.439,36.990 9.639,36.990 L31.360,36.990 C32.568,36.990 33.768,36.990 34.977,34.603 L38.789,21.445 C40.031,21.345 41.009,20.355 41.009,19.096 L41.009,17.904 C41.009,16.581 39.937,15.515 38.600,15.515 L2.407,15.515 L2.407,15.515 ZM9.193,21.479 L9.793,21.479 C11.131,21.479 12.451,22.475 12.733,23.716 L14.430,31.138 C14.713,32.384 13.847,33.409 12.509,33.409 L11.902,33.409 C10.566,33.409 9.246,32.384 8.963,31.138 L7.266,23.716 C6.984,22.475 7.855,21.479 9.193,21.479 L9.193,21.479 ZM20.504,21.479 C21.840,21.479 22.912,22.545 22.912,23.868 L22.912,31.026 C22.912,32.349 21.840,33.409 20.504,33.409 C19.166,33.409 18.088,32.349 18.088,31.026 L18.088,23.868 C18.088,22.545 19.166,21.479 20.504,21.479 L20.504,21.479 ZM31.206,21.479 L31.814,21.479 C33.151,21.479 34.016,22.475 33.734,23.716 L32.037,31.138 C31.754,32.384 30.436,33.409 29.098,33.409 L28.490,33.409 C27.154,33.409 26.288,32.384 26.570,31.138 L28.267,23.716 C28.551,22.475 29.869,21.479 31.206,21.479 L31.206,21.479 Z" class="cls-1"/>
</svg>
