<svg xmlns="http://www.w3.org/2000/svg" xmlns:xlink="http://www.w3.org/1999/xlink" preserveAspectRatio="xMidYMid" width="22" height="22" viewBox="0 0 22 22">
  <defs>
    <style>
      .cls-1 {
        fill: #e3e3e3;
        fill-rule: evenodd;
      }
    </style>
  </defs>
  <path d="M21.515,20.872 L20.871,21.515 C20.224,22.161 19.176,22.161 18.529,21.515 L14.477,17.468 C13.023,18.378 11.304,18.905 9.461,18.905 C4.236,18.905 -0.000,14.673 -0.000,9.452 C-0.000,4.232 4.236,-0.000 9.461,-0.000 C14.686,-0.000 18.922,4.232 18.922,9.452 C18.922,11.304 18.389,13.031 17.468,14.489 L21.515,18.532 C22.161,19.178 22.161,20.226 21.515,20.872 ZM9.461,2.616 C5.682,2.616 2.618,5.677 2.618,9.452 C2.618,13.228 5.682,16.289 9.461,16.289 C13.240,16.289 16.304,13.228 16.304,9.452 C16.304,5.677 13.240,2.616 9.461,2.616 Z" class="cls-1"/>
</svg>
